:SAMPLES-PER-SECOND 30
:FULLY-SPECIFIED
:DEGREES
720
root  28.6621 36.1979 -5.35325 16.2883 84.752 26.6815
RightUpLeg  -6.33811 1.51899 -6.14163
RightLeg  50.7547 -3.79967 -5.35045
RightFoot  -28.6085 0.281942 3.14906
RightToes  0.000482159 0.542163 -0.142577
Spine  38.2437 -1.82798 10.6554
Spine1  12.9425 4.70089 -8.45009
HEad  -11.7626 -6.12776 -0.287365
LeftShoulder1  10.8034 -15.4445 -49.7808
LeftArm  2.15276 29.7181 -22.4652
LeftForeArm  34.0934 -20.0925 -3.68496
LeftHand  -0.25398 0.0180481 5.50724
RightShoulder  5.82655 10.6032 35.3342
RightArm  -5.56447 6.98776 33.2572
RightForeArm  -21.9147 33.5739 8.60045
RightHand  -5.34662 14.1517 -31.4344
LeftUpLeg  -20.763 6.7412 7.68132
LeftLeg  3.4007 6.47571 -2.72026
LeftFoot  6.9293 0.58783 -3.90309
LeftToes  1.06246e-005 4.65854e-005 -8.18502e-006
721
root  27.435 36.4058 -4.77776 30.5484 86.4167 41.8205
RightUpLeg  -6.84069 -0.685741 -5.45708
RightLeg  49.9732 -3.96995 -5.41992
RightFoot  -26.9899 0.149988 2.422
RightToes  0.000482159 0.542163 -0.142577
Spine  36.4628 -1.91775 9.92253
Spine1  13.1432 3.5983 -6.83547
HEad  -10.5288 -5.14064 0.00894559
LeftShoulder1  10.8012 -15.3915 -49.9094
LeftArm  1.23783 30.0247 -23.2309
LeftForeArm  35.6842 -20.1931 -3.5654
LeftHand  -0.25398 0.0180481 5.50724
RightShoulder  5.80029 10.5522 35.2976
RightArm  -4.23153 5.27594 32.5952
RightForeArm  -20.1006 33.9861 8.63601
RightHand  -5.0508 13.6332 -30.5631
LeftUpLeg  -19.3225 7.79579 7.49209
LeftLeg  2.62996 12.5045 -3.43049
LeftFoot  5.18864 0.382876 -2.86643
LeftToes  1.06246e-005 4.65854e-005 -8.18502e-006
722
root  26.2386 36.7063 -4.28102 71.8442 87.6088 83.5693
RightUpLeg  -7.44054 -3.10302 -5.08218
RightLeg  48.4661 -4.23837 -5.46136
RightFoot  -24.7676 -0.0315588 1.14252
RightToes  0.000482159 0.542163 -0.142577
Spine  34.8857 -2.08303 9.14177
Spine1  12.9684 2.42141 -5.19962
HEad  -9.88013 -4.7302 0.838829
LeftShoulder1  10.8603 -15.3868 -50.1932
LeftArm  0.603423 29.1875 -23.3049
LeftForeArm  34.9619 -20.2025 -3.56643
LeftHand  -0.25398 0.0180481 5.50724
RightShoulder  5.72017 10.3915 35.2009
RightArm  -3.24788 2.72998 32.036
RightForeArm  -19.3815 34.223 8.6708
RightHand  -4.82303 13.1099 -30.0436
LeftUpLeg  -19.9226 12.415 4.7616
LeftLeg  7.65396 13.0108 -1.65803
LeftFoot  5.32124 0.350398 -2.61522
LeftToes  1.06246e-005 4.65854e-005 -8.18502e-006
723
root  25.0789 37.1176 -3.86301 120.156 87.0626 132.095
RightUpLeg  -7.8538 -5.10754 -4.58409
RightLeg  45.9659 -4.70812 -5.52617
RightFoot  -21.7797 -0.17588 -0.307323
RightToes  0.000482159 0.542163 -0.142577
Spine  33.7281 -2.24443 8.86211
Spine1  12.5179 1.63164 -4.00492
HEad  -10.135 -4.91725 1.86261
LeftShoulder1  10.8644 -15.3351 -50.3487
LeftArm  0.244636 27.1039 -23.1291
LeftForeArm  33.9513 -20.1404 -3.61175
LeftHand  -0.25398 0.0180481 5.50724
RightShoulder  5.66523 10.2244 35.3002
RightArm  -2.88673 -0.511351 31.3966
RightForeArm  -19.2218 34.2512 8.67116
RightHand  -4.70016 12.7585 -29.8555
LeftUpLeg  -21.1379 18.4949 0.909482
LeftLeg  15.938 6.68263 2.27316
LeftFoot  4.50943 0.456326 -3.47994
LeftToes  1.06246e-005 4.65854e-005 -8.18502e-006
724
root  23.9369 37.6007 -3.52246 137.312 85.8208 149.062
RightUpLeg  -8.26383 -6.76139 -4.26063
RightLeg  42.5005 -4.97974 -5.18095
RightFoot  -18.4894 -0.205568 -1.27665
RightToes  0.000482159 0.542163 -0.142577
Spine  32.5554 -2.20755 8.90355
Spine1  11.9029 1.33693 -3.34079
HEad  -10.6797 -5.52154 2.7727
LeftShoulder1  10.792 -15.2598 -50.2152
LeftArm  0.211927 24.3642 -22.993
LeftForeArm  33.851 -20.621 -3.51344
LeftHand  -0.25398 0.0180481 5.50724
RightShoulder  5.6692 10.1544 35.5361
RightArm  -2.66432 -4.15494 30.8235
RightForeArm  -19.4355 33.5502 8.4805
RightHand  -4.67614 12.706 -29.7927
LeftUpLeg  -20.5065 15.3085 1.10876
LeftLeg  23.9335 8.09709 4.3102
LeftFoot  2.07794 0.378871 -3.30062
LeftToes  1.06246e-005 4.65854e-005 -8.18502e-006
